<svg width="409" height="701" viewBox="0 0 409 701" version="1.1" xmlns="http://www.w3.org/2000/svg" xmlns:xlink="http://www.w3.org/1999/xlink">
<title>Frame</title>
<desc>Created using Figma</desc>
<g id="Canvas" transform="translate(287 419)">
<clipPath id="clip-0" clip-rule="evenodd">
<path d="M -287 -419L 122 -419L 122 282L -287 282L -287 -419Z" fill="#FFFFFF"/>
</clipPath>
<g id="Frame" clip-path="url(#clip-0)">
<g id="gulp (1)">
<g id="Vector">
<use xlink:href="#path0_fill" transform="translate(-204 -393.266)" fill="#D34A47"/>
</g>
<g id="Vector">
<use xlink:href="#path1_fill" transform="translate(-56.275 -248.641)" fill="#FFFFFF"/>
</g>
<g id="Vector">
<use xlink:href="#path2_fill" transform="translate(-203.11 -394)" fill="#D34A47"/>
</g>
</g>
</g>
</g>
<defs>
<path id="path0_fill" d="M 196.511 547.857L 201.938 457.427L 216.923 431.847C 216.923 431.847 182.817 445.799 125.718 445.799C 68.618 445.799 35.029 432.105 35.029 432.105L 51.823 460.009L 57.764 547.857C 57.764 557.275 88.823 564.909 127.138 564.909C 165.451 564.909 196.511 557.275 196.511 547.857L 196.511 547.857ZM 179.392 125.562L 190.783 80.537L 253.864 14.161L 237.238 1.95503e-08L 170.454 70.707L 157.228 124.5C 147.274 124.166 137.315 124.001 127.355 124.003C 57.019 124.003 -6.1989e-09 132.019 -6.1989e-09 141.905C -6.1989e-09 151.792 57.019 159.807 127.355 159.807C 197.69 159.807 254.708 151.792 254.708 141.905C 254.708 134.625 223.784 128.359 179.392 125.562"/>
<path id="path1_fill" d="M 25.041 6.15201C 25.041 6.15201 22.574 6.70501 15.317 6.73601C 8.05803 6.76601 2.90402 6.689 0.851023 4.819C 0.299023 4.317 -0.00297457 3.32 2.54336e-05 2.645C 0.00602543 1.36 0.918027 0.602996 2.08003 0.128996L 3.17903 1.853C 2.70103 2.018 2.42803 2.213 2.42703 2.421C 2.42303 3.397 9.84902 4.06499 15.529 3.99299C 21.21 3.92299 28.074 3.45499 28.08 2.49299C 28.08 2.20199 27.561 1.928 26.658 1.712L 27.752 -1.70898e-06C 29.224 0.456998 30.509 1.33999 30.506 2.86799C 30.492 5.46599 27.186 5.86101 25.041 6.15201"/>
<path id="path2_fill" d="M 252.85 15.0263C 254.436 13.1943 252.029 8.50833 247.474 4.56133C 242.917 0.616333 237.937 -1.09767 236.348 0.734333C 234.761 2.56633 237.169 7.25233 241.726 11.1973C 246.281 15.1433 251.263 16.8593 252.85 15.0263ZM 192.587 327.707C 191.092 313.323 224.049 292.491 215.591 291.824C 197.383 292.865 188.321 313.162 179.16 334.42C 175.803 342.211 164.316 375.433 156.782 371.343C 149.25 367.255 166.547 339.936 171.395 323.712C 165.801 327.814 145.286 343.753 139.999 328.826C 131.499 336.045 113.336 339.956 115.385 320.993C 110.863 329.003 100.714 340.186 88.532 335.539C 72.534 329.438 97.802 278.477 104.085 281.048C 110.369 283.618 102.817 295.227 100.839 299.735C 96.489 309.656 91.464 322.128 94.821 324.681C 100.572 329.055 116.222 308.134 116.57 307.674C 119.497 303.807 127.836 278.508 134.557 281.413C 141.278 284.318 117.793 317.721 126.574 324.35C 128.345 325.688 135.591 323.525 139.999 318.756C 142.851 315.671 141.87 308.838 151.377 286.166C 160.884 263.495 169.357 235.261 175.877 237.412C 182.397 239.562 177.023 254.053 174.684 259.455C 163.708 284.809 144.728 326.696 153.679 323.525C 162.63 320.355 167.291 320.169 176.056 309.912C 184.821 299.655 184.417 282.76 190.259 283.119C 196.103 283.479 195.122 288.896 193.705 293.021C 199.455 286.441 220.961 272.583 226.153 286.308C 232.303 302.557 195.384 326.028 204.589 324.831C 213.564 323.664 228.104 314.455 234.312 306.082L 251.4 152.456C 251.4 152.456 234.205 166.686 124.811 166.686C 15.416 166.686 3.91007e-08 152.752 3.91007e-08 152.752L 14.548 292.976C 22.27 271.029 40.607 226.637 69.511 228.127C 82.659 228.805 100.211 254.122 85.176 254.98C 78.812 255.342 78.166 242.343 70.63 240.434C 65.192 239.056 57.621 243.477 52.728 248.267C 42.97 257.817 21.983 295.496 24.756 314.281C 28.289 338.23 57.804 305.959 62.798 296.378C 66.315 289.629 68.691 269.633 76.383 271.731C 84.076 273.829 75.712 294.465 70.136 312.71C 63.872 333.197 60.579 354.808 52.728 352.322C 44.876 349.838 57.666 323.39 57.203 318.756C 49.823 325.565 36.227 342.803 18.833 334.271L 27.868 421.349C 27.868 421.349 51.881 440.322 124.218 440.322C 196.555 440.322 221.457 421.645 221.457 421.645L 232.676 320.788C 223.497 329.726 194.447 345.598 192.587 327.707"/>
</defs>
</svg>
