<?xml version="1.0" standalone="yes"?>
<svg width="178" height="165" xmlns="http://www.w3.org/2000/svg" version="1.1" >
	<polygon points="85,65 85,80 95,65" fill="rgb(203, 117, 44)" stroke="rgb(203, 117, 44)" stroke-width="1" stroke-linejoin="miter"/>
	<polygon points="75,100 75,110 100,100" fill="rgb(237, 196, 168)" stroke="rgb(237, 196, 168)" stroke-width="1" stroke-linejoin="miter"/>
	<polygon points="85,85 75,100 100,100" fill="rgb(90, 60, 26)" stroke="rgb(90, 60, 26)" stroke-width="1" stroke-linejoin="miter"/>
	<polygon points="80,155 99,165 100,150" fill="rgb(206, 179, 149)" stroke="rgb(206, 179, 149)" stroke-width="1" stroke-linejoin="miter"/>
	<polygon points="75,150 80,155 100,150" fill="rgb(203, 172, 143)" stroke="rgb(203, 172, 143)" stroke-width="1" stroke-linejoin="miter"/>
	<polygon points="80,155 80,160 99,165" fill="rgb(205, 182, 151)" stroke="rgb(205, 182, 151)" stroke-width="1" stroke-linejoin="miter"/>
	<polygon points="80,55 85,65 95,65" fill="rgb(208, 169, 12)" stroke="rgb(208, 169, 12)" stroke-width="1" stroke-linejoin="miter"/>
	<polygon points="75,110 75,150 105,135" fill="rgb(180, 158, 135)" stroke="rgb(180, 158, 135)" stroke-width="1" stroke-linejoin="miter"/>
	<polygon points="75,150 100,150 105,135" fill="rgb(200, 166, 141)" stroke="rgb(200, 166, 141)" stroke-width="1" stroke-linejoin="miter"/>
	<polygon points="85,5 95,20 99,0" fill="rgb(110, 122, 134)" stroke="rgb(110, 122, 134)" stroke-width="1" stroke-linejoin="miter"/>
	<polygon points="99,0 95,20 110,15" fill="rgb(55, 75, 84)" stroke="rgb(55, 75, 84)" stroke-width="1" stroke-linejoin="miter"/>
</svg>