<?xml version="1.0" standalone="yes"?>
<svg width="178" height="165" xmlns="http://www.w3.org/2000/svg" version="1.1" >
	<polygon points="80,55 65,70 85,65" fill="rgb(181, 139, 29)" stroke="rgb(181, 139, 29)" stroke-width="1" stroke-linejoin="miter"/>
	<polygon points="65,70 85,80 85,65" fill="rgb(235, 168, 64)" stroke="rgb(235, 168, 64)" stroke-width="1" stroke-linejoin="miter"/>
	<polygon points="65,70 70,85 85,80" fill="rgb(170, 101, 36)" stroke="rgb(170, 101, 36)" stroke-width="1" stroke-linejoin="miter"/>
	<polygon points="70,85 85,85 85,80" fill="rgb(245, 132, 72)" stroke="rgb(245, 132, 72)" stroke-width="1" stroke-linejoin="miter"/>
	<polygon points="70,85 75,100 85,85" fill="rgb(247, 153, 101)" stroke="rgb(247, 153, 101)" stroke-width="1" stroke-linejoin="miter"/>
	<polygon points="55,115 75,150 75,110" fill="rgb(203, 179, 145)" stroke="rgb(203, 179, 145)" stroke-width="1" stroke-linejoin="miter"/>
	<polygon points="0,0 25,10 65,0" fill="rgb(82, 69, 76)" stroke="rgb(82, 69, 76)" stroke-width="1" stroke-linejoin="miter"/>
	<polygon points="70,5 60,15 95,20" fill="rgb(75, 85, 86)" stroke="rgb(75, 85, 86)" stroke-width="1" stroke-linejoin="miter"/>
	<polygon points="85,5 70,5 95,20" fill="rgb(84, 98, 111)" stroke="rgb(84, 98, 111)" stroke-width="1" stroke-linejoin="miter"/>
	<polygon points="60,15 75,50 95,20" fill="rgb(121, 156, 114)" stroke="rgb(121, 156, 114)" stroke-width="1" stroke-linejoin="miter"/>
	<polygon points="85,65 85,80 95,65" fill="rgb(203, 117, 44)" stroke="rgb(203, 117, 44)" stroke-width="1" stroke-linejoin="miter"/>
	<polygon points="75,100 75,110 100,100" fill="rgb(237, 196, 168)" stroke="rgb(237, 196, 168)" stroke-width="1" stroke-linejoin="miter"/>
	<polygon points="85,85 75,100 100,100" fill="rgb(90, 60, 26)" stroke="rgb(90, 60, 26)" stroke-width="1" stroke-linejoin="miter"/>
	<polygon points="80,155 99,165 100,150" fill="rgb(206, 179, 149)" stroke="rgb(206, 179, 149)" stroke-width="1" stroke-linejoin="miter"/>
	<polygon points="75,150 80,155 100,150" fill="rgb(203, 172, 143)" stroke="rgb(203, 172, 143)" stroke-width="1" stroke-linejoin="miter"/>
	<polygon points="80,155 80,160 99,165" fill="rgb(205, 182, 151)" stroke="rgb(205, 182, 151)" stroke-width="1" stroke-linejoin="miter"/>
	<polygon points="80,55 85,65 95,65" fill="rgb(208, 169, 12)" stroke="rgb(208, 169, 12)" stroke-width="1" stroke-linejoin="miter"/>
	<polygon points="75,110 75,150 105,135" fill="rgb(180, 158, 135)" stroke="rgb(180, 158, 135)" stroke-width="1" stroke-linejoin="miter"/>
	<polygon points="75,150 100,150 105,135" fill="rgb(200, 166, 141)" stroke="rgb(200, 166, 141)" stroke-width="1" stroke-linejoin="miter"/>
	<polygon points="85,5 95,20 99,0" fill="rgb(110, 122, 134)" stroke="rgb(110, 122, 134)" stroke-width="1" stroke-linejoin="miter"/>
	<polygon points="99,0 95,20 110,15" fill="rgb(55, 75, 84)" stroke="rgb(55, 75, 84)" stroke-width="1" stroke-linejoin="miter"/>
</svg>